<?xml version="1.0" encoding="iso-8859-1"?>
<!-- Uploaded to: SVG Repo, www.svgrepo.com, Generator: SVG Repo Mixer Tools -->
<!DOCTYPE svg PUBLIC "-//W3C//DTD SVG 1.1//EN" "http://www.w3.org/Graphics/SVG/1.1/DTD/svg11.dtd">
<svg fill="#000000" version="1.1" id="Capa_1" xmlns="http://www.w3.org/2000/svg" xmlns:xlink="http://www.w3.org/1999/xlink" 
	 width="800px" height="800px" viewBox="0 0 370.301 370.301"
	 xml:space="preserve">
<g>
	<g>
		<path d="M305.798,187.169h-18.7c-16.229-40.647-52.726-71.078-96.942-78.715c5.363-5.5,8.677-13.008,8.677-21.277
			c0-16.818-13.683-30.502-30.501-30.502c-16.818,0-30.501,13.684-30.501,30.502c0,8.27,3.313,15.777,8.677,21.277
			c-44.218,7.639-80.713,38.068-96.942,78.715H30.864c-4.418,0-8,3.582-8,8v46.16c0,4.418,3.582,8,8,8H41.36
			c7.38,63.254,61.109,112.558,126.226,112.932c0.249,0.006,0.495,0.02,0.745,0.02s0.496-0.014,0.745-0.02
			c65.118-0.374,118.846-49.678,126.228-112.932h10.494c4.42,0,8-3.582,8-8v-46.16C313.798,190.751,310.217,187.169,305.798,187.169
			z M168.331,72.673c7.996,0,14.501,6.506,14.501,14.502c0,7.995-6.505,14.5-14.501,14.5c-7.996,0-14.501-6.505-14.501-14.5
			C153.83,79.18,160.335,72.673,168.331,72.673z M168.331,122.571c44.796,0,83.517,26.475,101.358,64.597H66.973
			C84.815,149.046,123.535,122.571,168.331,122.571z M146.331,324.279c0-12.131,9.869-22,22-22c12.131,0,22,9.869,22,22
			c0,11.882-9.469,21.587-21.257,21.981c-0.248,0.001-0.495,0.009-0.743,0.009s-0.495-0.008-0.743-0.009
			C155.8,345.866,146.331,336.161,146.331,324.279z M202.478,340.936c2.465-5.033,3.854-10.686,3.854-16.656
			c0-20.953-17.047-38-38-38s-38,17.047-38,38c0,5.972,1.389,11.623,3.854,16.656c-40.45-13-70.928-48.447-76.702-91.606h221.698
			C273.405,292.488,242.928,327.936,202.478,340.936z M297.798,233.329H38.864v-30.16h258.934V233.329L297.798,233.329z"/>
		<circle cx="228.799" cy="275.184" r="10.799"/>
		<circle cx="107.863" cy="275.184" r="10.799"/>
		<path d="M365.115,39.474c-4.136-1.56-8.748,0.534-10.305,4.671l-15.375,40.871c-2.27-2.021-4.9-3.644-7.829-4.745
			c-2.833-1.065-5.794-1.606-8.801-1.606c-10.352,0-19.756,6.512-23.403,16.203c-4.852,12.901,1.696,27.346,14.597,32.2
			c2.831,1.065,5.792,1.606,8.801,1.606c0,0,0.001,0,0.002,0c10.352,0,19.755-6.512,23.399-16.203
			c0.168-0.447,0.32-0.896,0.461-1.35c0.078-0.169,0.171-0.328,0.238-0.506l22.887-60.838
			C371.342,45.643,369.251,41.028,365.115,39.474z"/>
		<path d="M25.007,110.062c2.445,0,4.88-0.36,7.235-1.072c13.196-3.985,20.688-17.964,16.703-31.161
			c-0.11-0.366-0.247-0.718-0.373-1.075c-0.052-0.273-0.118-0.548-0.201-0.821L29.573,13.708c-1.278-4.229-5.743-6.62-9.972-5.345
			c-4.229,1.277-6.623,5.742-5.345,9.972L26.882,60.13c-0.617-0.045-1.237-0.075-1.864-0.075c-2.445,0-4.879,0.36-7.235,1.072
			C11.39,63.059,6.132,67.363,2.977,73.25c-3.154,5.885-3.828,12.647-1.897,19.04C4.293,102.919,13.908,110.062,25.007,110.062
			L25.007,110.062z"/>
	</g>
</g>
</svg>